<svg xmlns="http://www.w3.org/2000/svg" version="1.1" width="200" height="496">
<rect width="200" height="496" style="fill:black"/>
<rect x="0" y="0" width="7" height="7" style="fill:white"/>
<rect x="8" y="0" width="7" height="7" style="fill:white"/>
<rect x="16" y="0" width="7" height="7" style="fill:white"/>
<rect x="24" y="0" width="7" height="7" style="fill:white"/>
<rect x="32" y="0" width="7" height="7" style="fill:white"/>
<rect x="40" y="0" width="7" height="7" style="fill:white"/>
<rect x="48" y="0" width="7" height="7" style="fill:white"/>
<rect x="56" y="0" width="7" height="7" style="fill:white"/>
<rect x="64" y="0" width="7" height="7" style="fill:white"/>
<rect x="72" y="0" width="7" height="7" style="fill:white"/>
<rect x="80" y="0" width="7" height="7" style="fill:white"/>
<rect x="88" y="0" width="7" height="7" style="fill:white"/>
<rect x="96" y="0" width="7" height="7" style="fill:white"/>
<rect x="104" y="0" width="7" height="7" style="fill:white"/>
<rect x="112" y="0" width="7" height="7" style="fill:white"/>
<rect x="120" y="0" width="7" height="7" style="fill:white"/>
<rect x="128" y="0" width="7" height="7" style="fill:white"/>
<rect x="136" y="0" width="7" height="7" style="fill:white"/>
<rect x="144" y="0" width="7" height="7" style="fill:white"/>
<rect x="152" y="0" width="7" height="7" style="fill:white"/>
<rect x="160" y="0" width="7" height="7" style="fill:white"/>
<rect x="168" y="0" width="7" height="7" style="fill:white"/>
<rect x="176" y="0" width="7" height="7" style="fill:white"/>
<rect x="184" y="0" width="7" height="7" style="fill:white"/>
<rect x="192" y="0" width="7" height="7" style="fill:white"/>
<rect x="0" y="8" width="7" height="7" style="fill:white"/>
<rect x="192" y="8" width="7" height="7" style="fill:white"/>
<rect x="0" y="16" width="7" height="7" style="fill:white"/>
<rect x="16" y="16" width="7" height="7" style="fill:white"/>
<rect x="24" y="16" width="7" height="7" style="fill:white"/>
<rect x="32" y="16" width="7" height="7" style="fill:white"/>
<rect x="192" y="16" width="7" height="7" style="fill:white"/>
<rect x="0" y="24" width="7" height="7" style="fill:white"/>
<rect x="16" y="24" width="7" height="7" style="fill:white"/>
<rect x="192" y="24" width="7" height="7" style="fill:white"/>
<rect x="0" y="32" width="7" height="7" style="fill:white"/>
<rect x="16" y="32" width="7" height="7" style="fill:white"/>
<rect x="24" y="32" width="7" height="7" style="fill:white"/>
<rect x="32" y="32" width="7" height="7" style="fill:white"/>
<rect x="192" y="32" width="7" height="7" style="fill:white"/>
<rect x="0" y="40" width="7" height="7" style="fill:white"/>
<rect x="192" y="40" width="7" height="7" style="fill:white"/>
<rect x="0" y="48" width="7" height="7" style="fill:white"/>
<rect x="192" y="48" width="7" height="7" style="fill:white"/>
<rect x="0" y="56" width="7" height="7" style="fill:white"/>
<rect x="24" y="56" width="7" height="7" style="fill:white"/>
<rect x="80" y="56" width="7" height="7" style="fill:white"/>
<rect x="88" y="56" width="7" height="7" style="fill:white"/>
<rect x="96" y="56" width="7" height="7" style="fill:white"/>
<rect x="160" y="56" width="7" height="7" style="fill:white"/>
<rect x="192" y="56" width="7" height="7" style="fill:white"/>
<rect x="0" y="64" width="7" height="7" style="fill:white"/>
<rect x="16" y="64" width="7" height="7" style="fill:white"/>
<rect x="80" y="64" width="7" height="7" style="fill:white"/>
<rect x="152" y="64" width="7" height="7" style="fill:white"/>
<rect x="192" y="64" width="7" height="7" style="fill:white"/>
<rect x="0" y="72" width="7" height="7" style="fill:white"/>
<rect x="80" y="72" width="7" height="7" style="fill:white"/>
<rect x="88" y="72" width="7" height="7" style="fill:white"/>
<rect x="96" y="72" width="7" height="7" style="fill:white"/>
<rect x="192" y="72" width="7" height="7" style="fill:white"/>
<rect x="0" y="80" width="7" height="7" style="fill:white"/>
<rect x="192" y="80" width="7" height="7" style="fill:white"/>
<rect x="0" y="88" width="7" height="7" style="fill:white"/>
<rect x="192" y="88" width="7" height="7" style="fill:white"/>
<rect x="0" y="96" width="7" height="7" style="fill:white"/>
<rect x="24" y="96" width="7" height="7" style="fill:white"/>
<rect x="80" y="96" width="7" height="7" style="fill:white"/>
<rect x="88" y="96" width="7" height="7" style="fill:white"/>
<rect x="96" y="96" width="7" height="7" style="fill:white"/>
<rect x="160" y="96" width="7" height="7" style="fill:white"/>
<rect x="192" y="96" width="7" height="7" style="fill:white"/>
<rect x="0" y="104" width="7" height="7" style="fill:white"/>
<rect x="16" y="104" width="7" height="7" style="fill:white"/>
<rect x="24" y="104" width="7" height="7" style="fill:white"/>
<rect x="80" y="104" width="7" height="7" style="fill:white"/>
<rect x="152" y="104" width="7" height="7" style="fill:white"/>
<rect x="160" y="104" width="7" height="7" style="fill:white"/>
<rect x="192" y="104" width="7" height="7" style="fill:white"/>
<rect x="0" y="112" width="7" height="7" style="fill:white"/>
<rect x="80" y="112" width="7" height="7" style="fill:white"/>
<rect x="88" y="112" width="7" height="7" style="fill:white"/>
<rect x="96" y="112" width="7" height="7" style="fill:white"/>
<rect x="192" y="112" width="7" height="7" style="fill:white"/>
<rect x="0" y="120" width="7" height="7" style="fill:white"/>
<rect x="192" y="120" width="7" height="7" style="fill:white"/>
<rect x="0" y="128" width="7" height="7" style="fill:white"/>
<rect x="192" y="128" width="7" height="7" style="fill:white"/>
<rect x="0" y="136" width="7" height="7" style="fill:white"/>
<rect x="24" y="136" width="7" height="7" style="fill:white"/>
<rect x="32" y="136" width="7" height="7" style="fill:white"/>
<rect x="88" y="136" width="7" height="7" style="fill:white"/>
<rect x="96" y="136" width="7" height="7" style="fill:white"/>
<rect x="104" y="136" width="7" height="7" style="fill:white"/>
<rect x="168" y="136" width="7" height="7" style="fill:white"/>
<rect x="176" y="136" width="7" height="7" style="fill:white"/>
<rect x="192" y="136" width="7" height="7" style="fill:white"/>
<rect x="0" y="144" width="7" height="7" style="fill:white"/>
<rect x="16" y="144" width="7" height="7" style="fill:white"/>
<rect x="32" y="144" width="7" height="7" style="fill:white"/>
<rect x="88" y="144" width="7" height="7" style="fill:white"/>
<rect x="160" y="144" width="7" height="7" style="fill:white"/>
<rect x="176" y="144" width="7" height="7" style="fill:white"/>
<rect x="192" y="144" width="7" height="7" style="fill:white"/>
<rect x="0" y="152" width="7" height="7" style="fill:white"/>
<rect x="16" y="152" width="7" height="7" style="fill:white"/>
<rect x="88" y="152" width="7" height="7" style="fill:white"/>
<rect x="96" y="152" width="7" height="7" style="fill:white"/>
<rect x="104" y="152" width="7" height="7" style="fill:white"/>
<rect x="160" y="152" width="7" height="7" style="fill:white"/>
<rect x="192" y="152" width="7" height="7" style="fill:white"/>
<rect x="0" y="160" width="7" height="7" style="fill:white"/>
<rect x="192" y="160" width="7" height="7" style="fill:white"/>
<rect x="0" y="168" width="7" height="7" style="fill:white"/>
<rect x="192" y="168" width="7" height="7" style="fill:white"/>
<rect x="0" y="176" width="7" height="7" style="fill:white"/>
<rect x="24" y="176" width="7" height="7" style="fill:white"/>
<rect x="32" y="176" width="7" height="7" style="fill:white"/>
<rect x="88" y="176" width="7" height="7" style="fill:white"/>
<rect x="96" y="176" width="7" height="7" style="fill:white"/>
<rect x="104" y="176" width="7" height="7" style="fill:white"/>
<rect x="168" y="176" width="7" height="7" style="fill:white"/>
<rect x="176" y="176" width="7" height="7" style="fill:white"/>
<rect x="192" y="176" width="7" height="7" style="fill:white"/>
<rect x="0" y="184" width="7" height="7" style="fill:white"/>
<rect x="16" y="184" width="7" height="7" style="fill:white"/>
<rect x="24" y="184" width="7" height="7" style="fill:white"/>
<rect x="32" y="184" width="7" height="7" style="fill:white"/>
<rect x="88" y="184" width="7" height="7" style="fill:white"/>
<rect x="160" y="184" width="7" height="7" style="fill:white"/>
<rect x="168" y="184" width="7" height="7" style="fill:white"/>
<rect x="176" y="184" width="7" height="7" style="fill:white"/>
<rect x="192" y="184" width="7" height="7" style="fill:white"/>
<rect x="0" y="192" width="7" height="7" style="fill:white"/>
<rect x="16" y="192" width="7" height="7" style="fill:white"/>
<rect x="88" y="192" width="7" height="7" style="fill:white"/>
<rect x="96" y="192" width="7" height="7" style="fill:white"/>
<rect x="104" y="192" width="7" height="7" style="fill:white"/>
<rect x="160" y="192" width="7" height="7" style="fill:white"/>
<rect x="192" y="192" width="7" height="7" style="fill:white"/>
<rect x="0" y="200" width="7" height="7" style="fill:white"/>
<rect x="192" y="200" width="7" height="7" style="fill:white"/>
<rect x="0" y="208" width="7" height="7" style="fill:white"/>
<rect x="192" y="208" width="7" height="7" style="fill:white"/>
<rect x="0" y="216" width="7" height="7" style="fill:white"/>
<rect x="192" y="216" width="7" height="7" style="fill:white"/>
<rect x="0" y="224" width="7" height="7" style="fill:white"/>
<rect x="16" y="224" width="7" height="7" style="fill:white"/>
<rect x="32" y="224" width="7" height="7" style="fill:white"/>
<rect x="48" y="224" width="7" height="7" style="fill:white"/>
<rect x="64" y="224" width="7" height="7" style="fill:white"/>
<rect x="192" y="224" width="7" height="7" style="fill:white"/>
<rect x="0" y="232" width="7" height="7" style="fill:white"/>
<rect x="192" y="232" width="7" height="7" style="fill:white"/>
<rect x="0" y="240" width="7" height="7" style="fill:white"/>
<rect x="192" y="240" width="7" height="7" style="fill:white"/>
<rect x="0" y="248" width="7" height="7" style="fill:white"/>
<rect x="192" y="248" width="7" height="7" style="fill:white"/>
<rect x="0" y="256" width="7" height="7" style="fill:white"/>
<rect x="24" y="256" width="7" height="7" style="fill:white"/>
<rect x="32" y="256" width="7" height="7" style="fill:white"/>
<rect x="88" y="256" width="7" height="7" style="fill:white"/>
<rect x="96" y="256" width="7" height="7" style="fill:white"/>
<rect x="104" y="256" width="7" height="7" style="fill:white"/>
<rect x="168" y="256" width="7" height="7" style="fill:white"/>
<rect x="176" y="256" width="7" height="7" style="fill:white"/>
<rect x="192" y="256" width="7" height="7" style="fill:white"/>
<rect x="0" y="264" width="7" height="7" style="fill:white"/>
<rect x="16" y="264" width="7" height="7" style="fill:white"/>
<rect x="32" y="264" width="7" height="7" style="fill:white"/>
<rect x="88" y="264" width="7" height="7" style="fill:white"/>
<rect x="160" y="264" width="7" height="7" style="fill:white"/>
<rect x="176" y="264" width="7" height="7" style="fill:white"/>
<rect x="192" y="264" width="7" height="7" style="fill:white"/>
<rect x="0" y="272" width="7" height="7" style="fill:white"/>
<rect x="16" y="272" width="7" height="7" style="fill:white"/>
<rect x="32" y="272" width="7" height="7" style="fill:white"/>
<rect x="88" y="272" width="7" height="7" style="fill:white"/>
<rect x="96" y="272" width="7" height="7" style="fill:white"/>
<rect x="104" y="272" width="7" height="7" style="fill:white"/>
<rect x="160" y="272" width="7" height="7" style="fill:white"/>
<rect x="176" y="272" width="7" height="7" style="fill:white"/>
<rect x="192" y="272" width="7" height="7" style="fill:white"/>
<rect x="0" y="280" width="7" height="7" style="fill:white"/>
<rect x="192" y="280" width="7" height="7" style="fill:white"/>
<rect x="0" y="288" width="7" height="7" style="fill:white"/>
<rect x="192" y="288" width="7" height="7" style="fill:white"/>
<rect x="0" y="296" width="7" height="7" style="fill:white"/>
<rect x="24" y="296" width="7" height="7" style="fill:white"/>
<rect x="32" y="296" width="7" height="7" style="fill:white"/>
<rect x="88" y="296" width="7" height="7" style="fill:white"/>
<rect x="96" y="296" width="7" height="7" style="fill:white"/>
<rect x="104" y="296" width="7" height="7" style="fill:white"/>
<rect x="168" y="296" width="7" height="7" style="fill:white"/>
<rect x="176" y="296" width="7" height="7" style="fill:white"/>
<rect x="192" y="296" width="7" height="7" style="fill:white"/>
<rect x="0" y="304" width="7" height="7" style="fill:white"/>
<rect x="16" y="304" width="7" height="7" style="fill:white"/>
<rect x="24" y="304" width="7" height="7" style="fill:white"/>
<rect x="32" y="304" width="7" height="7" style="fill:white"/>
<rect x="88" y="304" width="7" height="7" style="fill:white"/>
<rect x="160" y="304" width="7" height="7" style="fill:white"/>
<rect x="168" y="304" width="7" height="7" style="fill:white"/>
<rect x="176" y="304" width="7" height="7" style="fill:white"/>
<rect x="192" y="304" width="7" height="7" style="fill:white"/>
<rect x="0" y="312" width="7" height="7" style="fill:white"/>
<rect x="16" y="312" width="7" height="7" style="fill:white"/>
<rect x="32" y="312" width="7" height="7" style="fill:white"/>
<rect x="88" y="312" width="7" height="7" style="fill:white"/>
<rect x="96" y="312" width="7" height="7" style="fill:white"/>
<rect x="104" y="312" width="7" height="7" style="fill:white"/>
<rect x="160" y="312" width="7" height="7" style="fill:white"/>
<rect x="176" y="312" width="7" height="7" style="fill:white"/>
<rect x="192" y="312" width="7" height="7" style="fill:white"/>
<rect x="0" y="320" width="7" height="7" style="fill:white"/>
<rect x="192" y="320" width="7" height="7" style="fill:white"/>
<rect x="0" y="328" width="7" height="7" style="fill:white"/>
<rect x="192" y="328" width="7" height="7" style="fill:white"/>
<rect x="0" y="336" width="7" height="7" style="fill:white"/>
<rect x="192" y="336" width="7" height="7" style="fill:white"/>
<rect x="0" y="344" width="7" height="7" style="fill:white"/>
<rect x="16" y="344" width="7" height="7" style="fill:white"/>
<rect x="32" y="344" width="7" height="7" style="fill:white"/>
<rect x="48" y="344" width="7" height="7" style="fill:white"/>
<rect x="64" y="344" width="7" height="7" style="fill:white"/>
<rect x="192" y="344" width="7" height="7" style="fill:white"/>
<rect x="0" y="352" width="7" height="7" style="fill:white"/>
<rect x="192" y="352" width="7" height="7" style="fill:white"/>
<rect x="0" y="360" width="7" height="7" style="fill:white"/>
<rect x="192" y="360" width="7" height="7" style="fill:white"/>
<rect x="0" y="368" width="7" height="7" style="fill:white"/>
<rect x="192" y="368" width="7" height="7" style="fill:white"/>
<rect x="0" y="376" width="7" height="7" style="fill:white"/>
<rect x="24" y="376" width="7" height="7" style="fill:white"/>
<rect x="80" y="376" width="7" height="7" style="fill:white"/>
<rect x="88" y="376" width="7" height="7" style="fill:white"/>
<rect x="96" y="376" width="7" height="7" style="fill:white"/>
<rect x="160" y="376" width="7" height="7" style="fill:white"/>
<rect x="192" y="376" width="7" height="7" style="fill:white"/>
<rect x="0" y="384" width="7" height="7" style="fill:white"/>
<rect x="16" y="384" width="7" height="7" style="fill:white"/>
<rect x="24" y="384" width="7" height="7" style="fill:white"/>
<rect x="80" y="384" width="7" height="7" style="fill:white"/>
<rect x="152" y="384" width="7" height="7" style="fill:white"/>
<rect x="160" y="384" width="7" height="7" style="fill:white"/>
<rect x="192" y="384" width="7" height="7" style="fill:white"/>
<rect x="0" y="392" width="7" height="7" style="fill:white"/>
<rect x="16" y="392" width="7" height="7" style="fill:white"/>
<rect x="80" y="392" width="7" height="7" style="fill:white"/>
<rect x="88" y="392" width="7" height="7" style="fill:white"/>
<rect x="96" y="392" width="7" height="7" style="fill:white"/>
<rect x="152" y="392" width="7" height="7" style="fill:white"/>
<rect x="192" y="392" width="7" height="7" style="fill:white"/>
<rect x="0" y="400" width="7" height="7" style="fill:white"/>
<rect x="192" y="400" width="7" height="7" style="fill:white"/>
<rect x="0" y="408" width="7" height="7" style="fill:white"/>
<rect x="192" y="408" width="7" height="7" style="fill:white"/>
<rect x="0" y="416" width="7" height="7" style="fill:white"/>
<rect x="24" y="416" width="7" height="7" style="fill:white"/>
<rect x="32" y="416" width="7" height="7" style="fill:white"/>
<rect x="88" y="416" width="7" height="7" style="fill:white"/>
<rect x="96" y="416" width="7" height="7" style="fill:white"/>
<rect x="104" y="416" width="7" height="7" style="fill:white"/>
<rect x="168" y="416" width="7" height="7" style="fill:white"/>
<rect x="176" y="416" width="7" height="7" style="fill:white"/>
<rect x="192" y="416" width="7" height="7" style="fill:white"/>
<rect x="0" y="424" width="7" height="7" style="fill:white"/>
<rect x="16" y="424" width="7" height="7" style="fill:white"/>
<rect x="32" y="424" width="7" height="7" style="fill:white"/>
<rect x="88" y="424" width="7" height="7" style="fill:white"/>
<rect x="160" y="424" width="7" height="7" style="fill:white"/>
<rect x="176" y="424" width="7" height="7" style="fill:white"/>
<rect x="192" y="424" width="7" height="7" style="fill:white"/>
<rect x="0" y="432" width="7" height="7" style="fill:white"/>
<rect x="16" y="432" width="7" height="7" style="fill:white"/>
<rect x="88" y="432" width="7" height="7" style="fill:white"/>
<rect x="96" y="432" width="7" height="7" style="fill:white"/>
<rect x="104" y="432" width="7" height="7" style="fill:white"/>
<rect x="160" y="432" width="7" height="7" style="fill:white"/>
<rect x="192" y="432" width="7" height="7" style="fill:white"/>
<rect x="0" y="440" width="7" height="7" style="fill:white"/>
<rect x="16" y="440" width="7" height="7" style="fill:white"/>
<rect x="160" y="440" width="7" height="7" style="fill:white"/>
<rect x="192" y="440" width="7" height="7" style="fill:white"/>
<rect x="0" y="448" width="7" height="7" style="fill:white"/>
<rect x="192" y="448" width="7" height="7" style="fill:white"/>
<rect x="0" y="456" width="7" height="7" style="fill:white"/>
<rect x="192" y="456" width="7" height="7" style="fill:white"/>
<rect x="0" y="464" width="7" height="7" style="fill:white"/>
<rect x="192" y="464" width="7" height="7" style="fill:white"/>
<rect x="0" y="472" width="7" height="7" style="fill:white"/>
<rect x="16" y="472" width="7" height="7" style="fill:white"/>
<rect x="32" y="472" width="7" height="7" style="fill:white"/>
<rect x="48" y="472" width="7" height="7" style="fill:white"/>
<rect x="64" y="472" width="7" height="7" style="fill:white"/>
<rect x="192" y="472" width="7" height="7" style="fill:white"/>
<rect x="0" y="480" width="7" height="7" style="fill:white"/>
<rect x="192" y="480" width="7" height="7" style="fill:white"/>
<rect x="0" y="488" width="7" height="7" style="fill:white"/>
<rect x="8" y="488" width="7" height="7" style="fill:white"/>
<rect x="16" y="488" width="7" height="7" style="fill:white"/>
<rect x="24" y="488" width="7" height="7" style="fill:white"/>
<rect x="32" y="488" width="7" height="7" style="fill:white"/>
<rect x="40" y="488" width="7" height="7" style="fill:white"/>
<rect x="48" y="488" width="7" height="7" style="fill:white"/>
<rect x="56" y="488" width="7" height="7" style="fill:white"/>
<rect x="64" y="488" width="7" height="7" style="fill:white"/>
<rect x="72" y="488" width="7" height="7" style="fill:white"/>
<rect x="80" y="488" width="7" height="7" style="fill:white"/>
<rect x="88" y="488" width="7" height="7" style="fill:white"/>
<rect x="96" y="488" width="7" height="7" style="fill:white"/>
<rect x="104" y="488" width="7" height="7" style="fill:white"/>
<rect x="112" y="488" width="7" height="7" style="fill:white"/>
<rect x="120" y="488" width="7" height="7" style="fill:white"/>
<rect x="128" y="488" width="7" height="7" style="fill:white"/>
<rect x="136" y="488" width="7" height="7" style="fill:white"/>
<rect x="144" y="488" width="7" height="7" style="fill:white"/>
<rect x="152" y="488" width="7" height="7" style="fill:white"/>
<rect x="160" y="488" width="7" height="7" style="fill:white"/>
<rect x="168" y="488" width="7" height="7" style="fill:white"/>
<rect x="176" y="488" width="7" height="7" style="fill:white"/>
<rect x="184" y="488" width="7" height="7" style="fill:white"/>
<rect x="192" y="488" width="7" height="7" style="fill:white"/>
<rect x="12.0" y="52.0" width="24" height="24" style="fill:green;opacity:0.5"/>
<text x="24.0" y="64.0" dominant-baseline="middle" text-anchor="middle" fill="white" style="paint-order: stroke; fill: white; stroke: black; stroke-width: 2px; font:24px bold sans;">0</text>
<rect x="148.0" y="52.0" width="24" height="24" style="fill:green;opacity:0.5"/>
<text x="160.0" y="64.0" dominant-baseline="middle" text-anchor="middle" fill="white" style="paint-order: stroke; fill: white; stroke: black; stroke-width: 2px; font:24px bold sans;">0</text>
<rect x="12.0" y="92.0" width="24" height="24" style="fill:green;opacity:0.5"/>
<text x="24.0" y="104.0" dominant-baseline="middle" text-anchor="middle" fill="white" style="paint-order: stroke; fill: white; stroke: black; stroke-width: 2px; font:24px bold sans;">1</text>
<rect x="148.0" y="92.0" width="24" height="24" style="fill:green;opacity:0.5"/>
<text x="160.0" y="104.0" dominant-baseline="middle" text-anchor="middle" fill="white" style="paint-order: stroke; fill: white; stroke: black; stroke-width: 2px; font:24px bold sans;">1</text>
<rect x="12.0" y="132.0" width="32" height="32" style="fill:green;opacity:0.5"/>
<text x="28.0" y="148.0" dominant-baseline="middle" text-anchor="middle" fill="white" style="paint-order: stroke; fill: white; stroke: black; stroke-width: 2px; font:24px bold sans;">2</text>
<rect x="156.0" y="132.0" width="32" height="32" style="fill:green;opacity:0.5"/>
<text x="172.0" y="148.0" dominant-baseline="middle" text-anchor="middle" fill="white" style="paint-order: stroke; fill: white; stroke: black; stroke-width: 2px; font:24px bold sans;">2</text>
<rect x="12.0" y="172.0" width="32" height="32" style="fill:green;opacity:0.5"/>
<text x="28.0" y="188.0" dominant-baseline="middle" text-anchor="middle" fill="white" style="paint-order: stroke; fill: white; stroke: black; stroke-width: 2px; font:24px bold sans;">3</text>
<rect x="156.0" y="172.0" width="32" height="32" style="fill:green;opacity:0.5"/>
<text x="172.0" y="188.0" dominant-baseline="middle" text-anchor="middle" fill="white" style="paint-order: stroke; fill: white; stroke: black; stroke-width: 2px; font:24px bold sans;">3</text>
<rect x="12.0" y="252.0" width="32" height="32" style="fill:green;opacity:0.5"/>
<text x="28.0" y="268.0" dominant-baseline="middle" text-anchor="middle" fill="white" style="paint-order: stroke; fill: white; stroke: black; stroke-width: 2px; font:24px bold sans;">10</text>
<rect x="156.0" y="252.0" width="32" height="32" style="fill:green;opacity:0.5"/>
<text x="172.0" y="268.0" dominant-baseline="middle" text-anchor="middle" fill="white" style="paint-order: stroke; fill: white; stroke: black; stroke-width: 2px; font:24px bold sans;">10</text>
<rect x="12.0" y="292.0" width="32" height="32" style="fill:green;opacity:0.5"/>
<text x="28.0" y="308.0" dominant-baseline="middle" text-anchor="middle" fill="white" style="paint-order: stroke; fill: white; stroke: black; stroke-width: 2px; font:24px bold sans;">11</text>
<rect x="156.0" y="292.0" width="32" height="32" style="fill:green;opacity:0.5"/>
<text x="172.0" y="308.0" dominant-baseline="middle" text-anchor="middle" fill="white" style="paint-order: stroke; fill: white; stroke: black; stroke-width: 2px; font:24px bold sans;">11</text>
<rect x="12.0" y="372.0" width="24" height="32" style="fill:green;opacity:0.5"/>
<text x="24.0" y="388.0" dominant-baseline="middle" text-anchor="middle" fill="white" style="paint-order: stroke; fill: white; stroke: black; stroke-width: 2px; font:24px bold sans;">-1</text>
<rect x="148.0" y="372.0" width="24" height="32" style="fill:green;opacity:0.5"/>
<text x="160.0" y="388.0" dominant-baseline="middle" text-anchor="middle" fill="white" style="paint-order: stroke; fill: white; stroke: black; stroke-width: 2px; font:24px bold sans;">-1</text>
<rect x="12.0" y="412.0" width="32" height="40" style="fill:green;opacity:0.5"/>
<text x="28.0" y="432.0" dominant-baseline="middle" text-anchor="middle" fill="white" style="paint-order: stroke; fill: white; stroke: black; stroke-width: 2px; font:24px bold sans;">-2</text>
<rect x="156.0" y="412.0" width="32" height="40" style="fill:green;opacity:0.5"/>
<text x="172.0" y="432.0" dominant-baseline="middle" text-anchor="middle" fill="white" style="paint-order: stroke; fill: white; stroke: black; stroke-width: 2px; font:24px bold sans;">-2</text>
</svg>
